<svg xmlns="http://www.w3.org/2000/svg" xmlns:xlink="http://www.w3.org/1999/xlink" viewBox="0 0 16.9 17"><defs><style>.cls-1,.cls-4{fill:#fff;}.cls-2{fill:url(#linear-gradient);}.cls-3{fill:url(#linear-gradient-2);}.cls-4{fill-rule:evenodd;}</style><linearGradient id="linear-gradient" x1="8.46" y1="16.71" x2="8.46" y2="0.29" gradientUnits="userSpaceOnUse"><stop offset="0" stop-color="#20b038"/><stop offset="1" stop-color="#60d66a"/></linearGradient><linearGradient id="linear-gradient-2" x1="8.46" y1="17" x2="8.46" gradientUnits="userSpaceOnUse"><stop offset="0" stop-color="#f9f9f9"/><stop offset="1" stop-color="#fff"/></linearGradient></defs><title>whatsapp_icon</title><g id="Layer_2" data-name="Layer 2"><g id="Menú_A_Smll" data-name="Menú A Smll"><path id="shape_4" data-name="shape 4" class="cls-1" d="M0,17l1.2-4.4a8.4,8.4,0,1,1,7.3,4.2h0a8.4,8.4,0,0,1-4-1Zm4.7-2.7.3.2a7,7,0,1,0-2.4-2.3l.2.3L2,15Z"/><path id="shape_3" data-name="shape 3" class="cls-2" d="M.3,16.7l1.2-4.2a8.1,8.1,0,1,1,7,4.1h0a8.1,8.1,0,0,1-3.9-1Z"/><path id="shape_2" data-name="shape 2" class="cls-3" d="M0,17l1.2-4.4a8.4,8.4,0,1,1,7.3,4.2h0a8.4,8.4,0,0,1-4-1Zm4.7-2.7.3.2a7,7,0,1,0-2.4-2.3l.2.3L2,15Z"/><path id="shape_1" data-name="shape 1" class="cls-4" d="M6.4,4.9c-.2-.4-.3-.4-.5-.4H5.5a.8.8,0,0,0-.6.3,2.4,2.4,0,0,0-.7,1.8,4.1,4.1,0,0,0,.9,2.2,8.6,8.6,0,0,0,3.6,3.2c1.8.7,2.1.6,2.5.5a2.1,2.1,0,0,0,1.4-1,1.8,1.8,0,0,0,.1-1l-.4-.2-1.4-.7c-.2-.1-.3-.1-.5.1l-.7.8c-.1.1-.2.2-.5.1a5.8,5.8,0,0,1-1.7-1A6.3,6.3,0,0,1,6.4,8c-.1-.2,0-.3.1-.4l.3-.4.2-.4a.4.4,0,0,0,0-.4Z"/></g></g></svg>