<svg xmlns="http://www.w3.org/2000/svg" viewBox="0 0 15.6 15.6"><defs><style>.cls-1{fill:#8f8974;}</style></defs><title>pinterest_gold</title><g id="Layer_2" data-name="Layer 2"><g id="svg2"><path id="path64" class="cls-1" d="M0,7.8a7.8,7.8,0,0,0,5,7.3,7.5,7.5,0,0,1,0-2.2l.9-3.9a2.8,2.8,0,0,1-.2-1.2c0-1.1.6-1.9,1.4-1.9A1,1,0,0,1,8.1,7a15.7,15.7,0,0,1-.6,2.6A1.1,1.1,0,0,0,8.6,11C10,11,11,9.5,11,7.4A3.1,3.1,0,0,0,7.8,4.3,3.4,3.4,0,0,0,4.2,7.6a3,3,0,0,0,.6,1.8.2.2,0,0,1,.1.2l-.2.9c0,.1-.1.2-.3.1a3.5,3.5,0,0,1-1.6-3C2.8,5.1,4.6,2.9,8,2.9a4.6,4.6,0,0,1,4.8,4.5c0,2.7-1.7,4.8-4,4.8a2.1,2.1,0,0,1-1.8-.9l-.5,1.9a8.7,8.7,0,0,1-1,2A7.8,7.8,0,1,0,0,7.8Z"/></g></g></svg>