<?xml version="1.0" encoding="utf-8"?>
<!-- Generator: Adobe Illustrator 22.0.0, SVG Export Plug-In . SVG Version: 6.00 Build 0)  -->
<svg version="1.1" id="Capa_1" xmlns="http://www.w3.org/2000/svg" xmlns:xlink="http://www.w3.org/1999/xlink" x="0px" y="0px"
	 viewBox="0 0 16.4 16" style="enable-background:new 0 0 16.4 16;" xml:space="preserve">
<style type="text/css">
	.st0{fill:#EEB820;}
</style>
<title>call-us_gold</title>
<g id="Layer_2">
	<g id="Menú_A_Big_copy">
		<path class="st0" d="M9.4,7H7.9v1.5h1.5V7z M11.4,5H9.9v1.5h1.5V5z M13.4,3h-1.5v1.5h1.5V3z M14.9,10.4c-1-0.1-1.9-0.3-2.8-0.7
			l-1.6,3.7C7.1,12,4.3,9.4,2.8,6l3.7-1.6C6.1,3.5,5.8,2.5,5.6,1.5C5.5,1,5.5,0.5,5.5,0H0c0,0.5,0,1,0.1,1.5C0.2,2.8,0.5,4.1,1,5.4
			l0.5,1.3c1.7,3.7,4.7,6.6,8.4,8.1l1.3,0.5c1.2,0.4,2.5,0.6,3.8,0.7h1.5v-5.5h-1.6V10.4z M2.3,4.8C1.9,3.7,1.7,2.6,1.6,1.5h2.5
			c0.1,0.8,0.3,1.6,0.5,2.3L4.2,4L2.8,4.6L2.3,4.8z M14.9,14.5c-1.1-0.1-2.2-0.3-3.2-0.6l0.2-0.5l0.6-1.4l0.2-0.5l2.1,0.4L14.9,14.5
			z M10.7,0v1.5h4.2v4.2h1.5V0H10.7z"/>
	</g>
</g>
</svg>
