<svg xmlns="http://www.w3.org/2000/svg" viewBox="0 0 198.4 192.5"><defs><style>.cls-1{fill:#fff;}</style></defs><title>app-logo-wht</title><g id="Layer_2" data-name="Layer 2"><g id="Capa_1" data-name="Capa 1"><path class="cls-1" d="M47.5,184.3a3.8,3.8,0,0,0-2.9,1.2,4,4,0,0,0-1.2,2.9,3.8,3.8,0,0,0,1.2,2.9,4.2,4.2,0,0,0,5.8,0,3.8,3.8,0,0,0,1.2-2.8,3.9,3.9,0,0,0-1.2-2.9A4.1,4.1,0,0,0,47.5,184.3Zm2.1,6.1a2.9,2.9,0,0,1-2,.8,2.7,2.7,0,0,1-2-.8,2.8,2.8,0,0,1-.8-2,2.6,2.6,0,0,1,.8-2,2.9,2.9,0,0,1,2-.8,2.7,2.7,0,0,1,2,.8,2.8,2.8,0,0,1,.8,2A2.6,2.6,0,0,1,49.6,190.4ZM110,58c-.9-.7-3.9-.2-5.3-.6.4,1.3-.5,3.4,1,4.7s5.6.8,6.4,1.7.4,0,.2-.2C109.8,61.2,112.2,59.7,110,58ZM33.9,190.2l-2.4-5.9h-.2l-2.5,5.8-2-5.6H25.3l3.3,7.9H29l2.5-5.9,2.4,5.9h.3l3.5-7.9H36Zm42.6-169c5.4.1,9.6,1,11.6,2.8-6,4.9-1.8,18.1,7.3,21.4,4.6,1.7,10.2-4.8,9.3-8.8,2.3-.8,7.1-1.8,7.1-1.8,1.4,2.8,5,9,7.1,13.3,3.5,6.9.3,9.4,3.2,12.8s3,14.3,7.4,26.8c1,2.8,8.7,5.3,1.2,7.8-2.2.8-5.6,2.9-6.2,4.1-.7-1.9-6.9-5-9.8-4.4,2.1,2.3,9.3,3.6,8.6,6.1-4.6,5.2-7.2,3.3-9.4,1.8s-6.2-6.2-8.9-7.5C98,92.3,87,88.1,75.7,82.7c-14.2-6.9-6.5-22.3-3.7-28C68,58.7,58,77.5,71.6,84c.1,1.6,2.6,18.7,3,21.6a5.8,5.8,0,0,0,.9,2.6,56.7,56.7,0,0,0,61.9-93.4c-11,17.9-31.1,19.7-38.7,22.3-.9.3-.7,1.2,4.2-.5,1.2.6-1,8.6-7.2,6.1s-11.9-12-5.8-18.1c9.5-4.8,34,.4,45.2-11.8l2.3,2a42.6,42.6,0,0,0,3.2-6.4c.3-.8.2-1.8-.4-1.9s-1.5.6-2,1.7a19.2,19.2,0,0,1-3.1,4.6,56.7,56.7,0,0,0-75.5,3.5H60C65.3,16.8,71.2,20.7,76.5,21.3Zm56,2.6c.3-1.3,1.9-2,1.7-.1s-1.5,15.9-14.8,21.6c-.5-.8-2.9-5.3-4.5-8.1C119.7,37.6,128.6,38.7,132.5,23.9ZM42.8,145l-.5-1.1-.3-.4-.6-.2H36.2l-.3.2-.3.3v.3L25,171.2a.5.5,0,0,0,.1.6l.6.2h5.7a1,1,0,0,0,1-.7l.7-2,.7-2H44.1l.7,2,.8,2a1.1,1.1,0,0,0,.4.6l.7.2h5.5a.9.9,0,0,0,.7-.2.6.6,0,0,0,.1-.6ZM36,161.2l.7-2.1.7-2.3.7-2.3.7-2.1,3,8.8Zm94.2-68.4c-1.6.7-1.2,1.2-2,2.4a20.7,20.7,0,0,1,3.2-1.2C131.9,93.8,131.8,92.2,130.2,92.8Zm-110,63.8a7.3,7.3,0,0,0,1.3-2.2,7.8,7.8,0,0,0,.5-2.7,8.1,8.1,0,0,0-.7-3.3,8.5,8.5,0,0,0-1.8-2.6,8.3,8.3,0,0,0-2.6-1.8,8,8,0,0,0-3.2-.6H.8a.8.8,0,0,0-.6.2.9.9,0,0,0-.2.6v27a.8.8,0,0,0,.2.6l.6.2h14a7.8,7.8,0,0,0,3.2-.7,8.7,8.7,0,0,0,2.7-1.9,9.1,9.1,0,0,0,1.8-2.8,8.4,8.4,0,0,0,.7-3.3,8.8,8.8,0,0,0-.8-3.7A9.4,9.4,0,0,0,20.2,156.6ZM7.5,149h4.1l1.2.2.9.6a2.8,2.8,0,0,1,.6.9,2.7,2.7,0,0,1,.2,1.1,2.8,2.8,0,0,1-.2,1.1,2.7,2.7,0,0,1-.6.9l-.9.6-1.2.2H7.5Zm7.9,15.2a3.3,3.3,0,0,1-.6,1l-.9.7-1.2.3H7.5v-6.5h5.1a2.5,2.5,0,0,1,1.2.3l.9.7a3.4,3.4,0,0,1,.6,1,3.2,3.2,0,0,1,.2,1.2A3.3,3.3,0,0,1,15.3,164.3Zm182.8,1.2-.6-.2H187v-21a.8.8,0,0,0-.3-.6l-.6-.2h-5.7a.8.8,0,0,0-.6.3.9.9,0,0,0-.2.6v27a.8.8,0,0,0,.8.9h17.2a.8.8,0,0,0,.6-.3.9.9,0,0,0,.2-.6v-5.1A.8.8,0,0,0,198.2,165.4Zm-51.1-8.8a7.3,7.3,0,0,0,1.3-2.2,7.8,7.8,0,0,0,.5-2.7,8.1,8.1,0,0,0-.7-3.3,8.5,8.5,0,0,0-1.8-2.6,8.3,8.3,0,0,0-2.6-1.8,8,8,0,0,0-3.2-.6H127.7a.8.8,0,0,0-.6.2.9.9,0,0,0-.2.6v27a.8.8,0,0,0,.2.6l.6.2h14a7.8,7.8,0,0,0,3.2-.7,8.7,8.7,0,0,0,2.7-1.9,9.1,9.1,0,0,0,1.8-2.8,8.4,8.4,0,0,0,.7-3.3,8.8,8.8,0,0,0-.8-3.7A9.4,9.4,0,0,0,147.1,156.6ZM134.3,149h4.1l1.2.2.9.6a2.8,2.8,0,0,1,.6.9,2.7,2.7,0,0,1,.2,1.1,2.8,2.8,0,0,1-.2,1.1,2.8,2.8,0,0,1-.6.9l-.9.6-1.2.2h-4.1Zm7.9,15.2a3.3,3.3,0,0,1-.6,1l-.9.7-1.2.3h-5.1v-6.5h5.1a2.5,2.5,0,0,1,1.2.3l.9.7a3.4,3.4,0,0,1,.6,1,3.2,3.2,0,0,1,.2,1.2A3.3,3.3,0,0,1,142.2,164.3Zm3.7,21.3.8-.2a2.3,2.3,0,0,1,1.1.3,1.3,1.3,0,0,1,.7.8l1.1-.6a3.8,3.8,0,0,0-1-1.1,2.7,2.7,0,0,0-1.3-.4h-1.3a3.3,3.3,0,0,0-1.2.6,1.8,1.8,0,0,0-.7,1.6,2.1,2.1,0,0,0,.5,1.3,2.4,2.4,0,0,0,1.2.8l1.7.5.6.4a1,1,0,0,1,.2.6.9.9,0,0,1-.1.4l-.5.4a1.6,1.6,0,0,1-.9.2,2.2,2.2,0,0,1-1.9-1.2l-1.2.8a3.6,3.6,0,0,0,1.4,1.1,4,4,0,0,0,1.7.4H148a2.3,2.3,0,0,0,1.1-.9,2.4,2.4,0,0,0,.4-1.4,1.9,1.9,0,0,0-.3-1,1.9,1.9,0,0,0-.9-.7l-2.6-.9a1.1,1.1,0,0,1-.5-.8,1.4,1.4,0,0,1,.1-.5A.9.9,0,0,1,145.9,185.6Zm28.7-20.2h-13v-4.9h9.7a.8.8,0,0,0,.6-.3.8.8,0,0,0,.2-.5v-4.2a.7.7,0,0,0-.2-.6l-.6-.2h-9.7V150h12.5a.8.8,0,0,0,.7-.3,1,1,0,0,0,.2-.6v-4.8a1,1,0,0,0-.2-.7.9.9,0,0,0-.7-.3H154.9a.8.8,0,0,0-.6.2.9.9,0,0,0-.2.6v27a.8.8,0,0,0,.2.6l.6.2h19.5c.5,0,.7-.2.8-.5a.5.5,0,0,0,.2-.3v-4.9A.8.8,0,0,0,174.5,165.4ZM132,189.5a1.6,1.6,0,0,1-.5,1.2,2,2,0,0,1-1.2.6h-.2a1.6,1.6,0,0,1-1.3-.7,2.5,2.5,0,0,1-.5-1.6v-4.5h-1.4v5.2a4.1,4.1,0,0,0,.3,1.1,2.8,2.8,0,0,0,1.2,1.2,3.8,3.8,0,0,0,1.7.4h1.1a2.5,2.5,0,0,0,1.4-.9,3.4,3.4,0,0,0,.8-1.9v-5H132Zm-68-5.2a3.8,3.8,0,0,0-2.9,1.2,4,4,0,0,0-1.2,2.9,3.8,3.8,0,0,0,1.2,2.9,4.2,4.2,0,0,0,5.8,0,3.8,3.8,0,0,0,1.2-2.8,3.9,3.9,0,0,0-1.2-2.9A4.1,4.1,0,0,0,64,184.3Zm2.1,6.1a2.9,2.9,0,0,1-2,.8,2.7,2.7,0,0,1-2-.8,2.8,2.8,0,0,1-.8-2,2.6,2.6,0,0,1,.8-2,2.9,2.9,0,0,1,2-.8,2.7,2.7,0,0,1,2,.8,2.8,2.8,0,0,1,.8,2A2.6,2.6,0,0,1,66.1,190.4Zm98.5.3a2.4,2.4,0,0,1-1.1.5h-.6a2.3,2.3,0,0,1-1.8-.8,2.8,2.8,0,0,1-.7-1.9h6.2a5.7,5.7,0,0,0-.4-2.3,2.9,2.9,0,0,0-1.3-1.5,4.2,4.2,0,0,0-2-.5h-1.2a2.9,2.9,0,0,0-1.7,1.3,4.3,4.3,0,0,0-.8,2.6,4.4,4.4,0,0,0,.5,2,3.8,3.8,0,0,0,1.3,1.5,4.2,4.2,0,0,0,2,.5,4.4,4.4,0,0,0,2.1-.5,5,5,0,0,0,1.7-1.4l-1.1-.7Zm-3.3-4.7a2,2,0,0,1,1.5-.6,2.4,2.4,0,0,1,1.6.6,2.6,2.6,0,0,1,.9,1.5h-4.8A2.9,2.9,0,0,1,161.3,186.1Zm-78.7-.2-.5-.6-.5-.4a3.3,3.3,0,0,0-1.8-.5,3.8,3.8,0,0,0-1.8.5,3.4,3.4,0,0,0-1.3,1.3,5,5,0,0,0-.6,2.4,4.4,4.4,0,0,0,.3,1.6,3.4,3.4,0,0,0,.8,1.3,3.6,3.6,0,0,0,1.2.8l1.4.3a3.4,3.4,0,0,0,1.7-.4,2.9,2.9,0,0,0,1.2-1.3v1.5h1.2V179.3H82.6Zm-.7,4.6a2.5,2.5,0,0,1-.9.6l-1.2.2a2,2,0,0,1-1.8-.9,3.4,3.4,0,0,1-.6-2v-.9a2.1,2.1,0,0,1,.8-1.2,2.5,2.5,0,0,1,1.7-.6h.4a2.3,2.3,0,0,1,1.6,1,3.1,3.1,0,0,1,.5,1.8A3.3,3.3,0,0,1,81.9,190.5ZM86,144.2a.9.9,0,0,0-.3-.6l-.6-.2H78.5a1,1,0,0,0-1,.7l-5.3,17.5L67,144.1a.9.9,0,0,0-.9-.7H59.3a.9.9,0,0,0-.7.3,1,1,0,0,0-.3.6l-2.8,27a.7.7,0,0,0,.8.9H62q.9,0,.9-.9l1.7-14.9,4.3,15a.8.8,0,0,0,.3.5l.5.3h5.1l.5-.3.3-.5,4.3-15,1.7,14.9a.8.8,0,0,0,.9.9H88q.9,0,.8-.8h0q-.7-6.8-1.4-13.5T86,144.2Zm34.1,6.1a14.7,14.7,0,0,0-5.3-5.3,15.1,15.1,0,0,0-3.5-1.5,14.8,14.8,0,0,0-7.9,0,15.2,15.2,0,0,0-3.5,1.5,14.4,14.4,0,0,0-3,2.3,15,15,0,0,0-2.3,3,14.9,14.9,0,0,0-1.5,11.4,14.4,14.4,0,0,0,1.5,3.5,14.9,14.9,0,0,0,5.3,5.3,14.8,14.8,0,0,0,14.9,0,15.1,15.1,0,0,0,3-2.3,14.6,14.6,0,0,0,2.3-3,15,15,0,0,0,1.5-3.5,14.8,14.8,0,0,0,0-7.9A15.3,15.3,0,0,0,120.1,150.2Zm-6,10.4a7.4,7.4,0,0,1-1.5,2.4,7,7,0,0,1-2.3,1.6,7.6,7.6,0,0,1-5.9,0,7.1,7.1,0,0,1-2.3-1.6,7.4,7.4,0,0,1-1.5-2.4,8.5,8.5,0,0,1,0-6,7.5,7.5,0,0,1,1.5-2.4,7.2,7.2,0,0,1,10.5,0,7.5,7.5,0,0,1,1.5,2.4,8.5,8.5,0,0,1,0,6Zm-.8,23.6a3.8,3.8,0,0,0-2.9,1.2,4,4,0,0,0-1.2,2.9,3.8,3.8,0,0,0,1.2,2.9,4.2,4.2,0,0,0,5.8,0,3.8,3.8,0,0,0,1.2-2.8,3.9,3.9,0,0,0-1.2-2.9A4.1,4.1,0,0,0,113.3,184.3Zm2.1,6.1a2.9,2.9,0,0,1-2,.8,2.7,2.7,0,0,1-2-.8,2.8,2.8,0,0,1-.8-2,2.6,2.6,0,0,1,.8-2,2.9,2.9,0,0,1,2-.8,2.7,2.7,0,0,1,2,.8,2.8,2.8,0,0,1,.8,2A2.6,2.6,0,0,1,115.4,190.4Zm-17.7-5.9a2.8,2.8,0,0,0-1.3.3,2.9,2.9,0,0,0-1.1,1v-6.4H94v12.8h1.3v-4.6a2.3,2.3,0,0,1,.5-1.3,1.7,1.7,0,0,1,1-.6h.6a1.4,1.4,0,0,1,1.1.5,2.6,2.6,0,0,1,.5,1.3v4.8h1.4v-4.9a3.2,3.2,0,0,0-.6-1.9A3,3,0,0,0,97.7,184.5Z"/></g></g></svg>