<svg xmlns="http://www.w3.org/2000/svg" viewBox="0 0 15.6 15.6"><defs><style>.cls-1{fill:#f2efe9;}</style></defs><title>social_instagram_wht</title><g id="Layer_2" data-name="Layer 2"><g id="FOOTER"><g id="Foot_Follow" data-name="Foot Follow"><path class="cls-1" d="M7.8,3.8a4,4,0,1,0,4,4A4,4,0,0,0,7.8,3.8Zm0,6.6a2.6,2.6,0,1,1,2.6-2.6A2.6,2.6,0,0,1,7.8,10.4ZM12,2.7a.9.9,0,1,0,.9.9A.9.9,0,0,0,12,2.7Zm3.6,1.9a5.7,5.7,0,0,0-.4-1.9,3.8,3.8,0,0,0-.9-1.4A3.8,3.8,0,0,0,12.9.4,5.7,5.7,0,0,0,11,0H4.6A5.7,5.7,0,0,0,2.7.4a3.8,3.8,0,0,0-1.4.9A3.8,3.8,0,0,0,.4,2.7,5.7,5.7,0,0,0,0,4.6c0,.8,0,1.1,0,3.2S0,10.2,0,11a5.7,5.7,0,0,0,.4,1.9,3.8,3.8,0,0,0,.9,1.4,3.8,3.8,0,0,0,1.4.9,5.7,5.7,0,0,0,1.9.4H11a5.7,5.7,0,0,0,1.9-.4,4,4,0,0,0,2.3-2.3,5.7,5.7,0,0,0,.4-1.9c0-.8,0-1.1,0-3.2S15.6,5.4,15.5,4.6Zm-1.4,6.4a4.3,4.3,0,0,1-.3,1.4,2.4,2.4,0,0,1-.6.9l-.9.6a4.3,4.3,0,0,1-1.4.3H4.6a4.3,4.3,0,0,1-1.4-.3l-.9-.6a2.4,2.4,0,0,1-.6-.9,4.3,4.3,0,0,1-.3-1.4c0-.8,0-1.1,0-3.2s0-2.3,0-3.2a4.3,4.3,0,0,1,.3-1.4,2.4,2.4,0,0,1,.6-.9l.9-.6a4.3,4.3,0,0,1,1.4-.3h6.3a4.3,4.3,0,0,1,1.4.3l.9.6a2.4,2.4,0,0,1,.6.9,4.3,4.3,0,0,1,.3,1.4c0,.8,0,1.1,0,3.2S14.2,10.1,14.1,10.9Z"/></g></g></g></svg>