<?xml version="1.0" encoding="utf-8"?>
<!-- Generator: Adobe Illustrator 22.0.0, SVG Export Plug-In . SVG Version: 6.00 Build 0)  -->
<svg version="1.1" id="Capa_1" xmlns="http://www.w3.org/2000/svg" xmlns:xlink="http://www.w3.org/1999/xlink" x="0px" y="0px"
	 viewBox="0 0 15.6 15.6" style="enable-background:new 0 0 15.6 15.6;" xml:space="preserve">
<style type="text/css">
	.st0{fill:#EEB820;}
</style>
<title>instagram_gold</title>
<g id="Layer_2">
	<g id="Menú_A_Big_copy">
		<path class="st0" d="M7.8,3.8c-2.2,0-4,1.8-4,4s1.8,4,4,4s4-1.8,4-4S10,3.8,7.8,3.8C7.8,3.8,7.8,3.8,7.8,3.8z M7.8,10.4
			c-1.4,0-2.6-1.2-2.6-2.6c0-1.4,1.2-2.6,2.6-2.6c1.4,0,2.6,1.2,2.6,2.6v0C10.4,9.2,9.2,10.4,7.8,10.4z M12,2.7
			c-0.5,0-0.9,0.4-0.9,0.9s0.4,0.9,0.9,0.9c0.5,0,0.9-0.4,0.9-0.9c0,0,0,0,0,0C12.9,3.1,12.5,2.7,12,2.7z M15.6,4.6
			c0-0.7-0.2-1.3-0.4-1.9c-0.2-0.5-0.5-1-0.9-1.4c-0.4-0.4-0.9-0.7-1.4-0.9C12.3,0.2,11.7,0,11,0H4.6C3.9,0,3.3,0.2,2.7,0.4
			c-0.5,0.2-1,0.5-1.4,0.9C0.9,1.7,0.6,2.2,0.4,2.7C0.2,3.3,0,3.9,0,4.6c0,0.8,0,1.1,0,3.2s0,2.4,0,3.2c0,0.7,0.2,1.3,0.4,1.9
			c0.2,0.5,0.5,1,0.9,1.4c0.4,0.4,0.9,0.7,1.4,0.9c0.6,0.2,1.2,0.4,1.9,0.4H11c0.7,0,1.3-0.2,1.9-0.4c1.1-0.4,1.9-1.2,2.3-2.3
			c0.2-0.6,0.4-1.2,0.4-1.9c0-0.8,0-1.1,0-3.2s0-2.4-0.1-3.2H15.6z M14.2,11c0,0.5-0.1,1-0.3,1.4c-0.1,0.3-0.3,0.6-0.6,0.9l-0.9,0.6
			c-0.4,0.2-0.9,0.3-1.4,0.3H4.6c-0.5,0-1-0.1-1.4-0.3l-0.9-0.6C2,13,1.8,12.7,1.7,12.4C1.5,12,1.4,11.5,1.4,11c0-0.8,0-1.1,0-3.2
			s0-2.3,0-3.2c0-0.5,0.1-1,0.3-1.4C1.8,2.9,2,2.6,2.3,2.3l0.9-0.6c0.4-0.2,0.9-0.3,1.4-0.3h6.3c0.5,0,1,0.1,1.4,0.3l0.9,0.6
			c0.3,0.3,0.5,0.6,0.6,0.9c0.2,0.4,0.3,0.9,0.3,1.4c0,0.8,0,1.1,0,3.2s0.1,2.3,0,3.1L14.2,11z"/>
	</g>
</g>
</svg>
