<?xml version="1.0" encoding="utf-8"?>
<!-- Generator: Adobe Illustrator 22.0.0, SVG Export Plug-In . SVG Version: 6.00 Build 0)  -->
<svg version="1.1" id="Capa_1" xmlns="http://www.w3.org/2000/svg" xmlns:xlink="http://www.w3.org/1999/xlink" x="0px" y="0px"
	 viewBox="0 0 640 116" style="enable-background:new 0 0 640 116;" xml:space="preserve">
<style type="text/css">
	.st0{fill:#EEB820;}
</style>
<g>
	<path class="st0" d="M429.3,59.8c0.4,0.1,0.8,0.1,1.2,0.2c0,15.6,0,31.2,0,46.9c0.5,0.1,0.9,0.1,1.4,0.2c0.2-1.2,0.6-2.5,0.6-3.7
		c0-15.4,0.1-30.8,0-46.2c0-4.6,2.3-8.1,5.3-11.6c0,20.4,0,40.8,0,61.3c7.6,0,14.8,0,22.3,0c0-33.1,0-66,0-99.2
		c-9,0-17.7-0.1-26.4,0.1c-1.1,0-2.6,1.2-3.2,2.3c-2.4,4.3-4.6,8.8-6.8,13.2c-4,7.8-8.1,15.6-12.5,24.1c-1-1.8-1.6-2.9-2.2-4.1
		c-5.3-10.8-10.5-21.6-15.9-32.4c-0.6-1.2-2-2.9-3.1-3c-9.5-0.2-18.9-0.1-28.5-0.1c0,33.3,0,66.2,0,99.1c7.5,0,14.6,0,22.2,0
		c0-20.5,0-40.6,0-60.7c0.4-0.1,0.7-0.2,1.1-0.4c8.5,16.8,17.1,33.5,25.9,50.8C417.1,83.7,423.2,71.7,429.3,59.8z M353.4,106.7
		c0-33.2,0-66,0-99.2c-9.1,0-17.9-0.1-26.7,0.1c-1,0-2.4,1.5-3,2.6c-4.2,7.9-8.3,15.9-12.4,23.8c-2.2,4.2-4.4,8.3-6.9,13.2
		c-6.8-13.9-13.2-26.8-19.3-39.4c-10.4,0-20.4,0-30.3,0c0,33.2,0,66.1,0,98.9c7.6,0,14.7,0,22.5,0c0-20.5,0-40.9,0-61.2
		c0.3,0,0.5-0.1,0.8-0.1c8.6,16.8,17.1,33.7,25.9,50.9c6.5-12.6,12.6-24.5,18.8-36.5c0.9,1.5,0.9,2.7,0.9,3.9
		c0,13.4-0.1,26.8,0,40.2c0,1.1,0.7,2.1,1.1,3.2c0.4-0.1,0.9-0.3,1.3-0.4c0-1.3,0-2.6,0-3.9c0-15.5,0-31.1,0-46.6
		c0-4.2,2.1-7.3,4.1-10.4c0.4,0.1,0.8,0.2,1.1,0.3c0,20.3,0,40.5,0,60.8C339,106.7,346.1,106.7,353.4,106.7z M563.8,39.7
		c0-2.2,0.1-4.1,0-6c-0.3-3,1-4,3.9-3.9c6,0.2,12.1-0.1,18.1,0.1c5.7,0.2,9.6,3.7,9.5,8.3c-0.1,4.7-4,7.8-9.8,7.9
		c-13.1,0-26.3,0-39.4,0c-1.4,0-2.9,0-4.4,0c0,20.5,0,40.5,0,60.5c7.5,0,14.6,0,22.2,0c0-1.7,0-3.1,0-4.6c0-9.9-0.1-19.8,0.1-29.8
		c0-1.2,0.6-3.2,1.5-3.6c3.1-1.5,6.9,0,8.7,3.2c5.8,10.5,11.6,21.1,17.4,31.6c0.7,1.3,2,3.1,3.1,3.2c7.8,0.3,15.6,0.1,24,0.1
		c-7.3-13.6-14.3-26.6-21.5-39.7c1.6-0.8,2.6-1.3,3.7-1.8c11.8-5.7,18.7-19.2,16.6-32.4C615.3,20.2,604.3,9,591.3,8.3
		c-16.3-0.9-32.7-0.5-49-0.6c-0.2,0-0.4,0.3-0.7,0.5c0,10.3,0,20.8,0,31.5C548.9,39.7,556,39.7,563.8,39.7z M108.2,46.3
		c0,11.2-0.7,22.2,0.2,33c1.2,15.3,11.7,25.7,26.8,27.3c6.2,0.7,12.6,0.2,18.9,0.2c17.1,0,30.5-13.4,30.7-30.5
		c0.1-12.7,0.1-25.5,0-38.2C184.7,24.5,176.3,12,163,9.4c-10.1-1.9-20.9-2.2-31.1-0.6C117.6,11,107,26.3,108.5,39.6
		c7.3,0,14.6,0,21.8,0c2.1-8.1,3.8-9.4,12.1-9.4c3.8,0,7.5-0.1,11.3,0.1c5.4,0.2,8.6,3.1,8.7,8.4c0.2,12.5,0.1,24.9,0,37.4
		c-0.1,4.9-3.3,8.2-8,8.4c-5.2,0.2-10.5,0.2-15.7,0c-4.9-0.2-7.6-3.1-7.8-7.9c-0.2-4.1-0.1-8.3-0.1-12.5c0-5.9,0-11.7,0-17.8
		C122.8,46.3,115.5,46.3,108.2,46.3z M20.9,70.3c0,2.2,0,4,0,5.7c0.3,15.9,10.3,28.1,26,30.3c7.9,1.1,16,0.7,24.1,0.5
		c3.8-0.1,7.8-0.9,11.3-2.2c12.8-5,20.3-18,18.6-31.5C99.1,59,88.7,47.6,74.7,46.9c-17.3-0.9-34.8-0.2-52.3-0.2
		c0.1,0.4,0.2,1,0.4,1.6c3.9,9.3,14.6,20.9,29.2,20.2c6.3-0.3,12.6-0.2,18.9,0.3c5,0.4,8,4.1,7.6,8.2c-0.3,4.4-3.8,7.4-8.9,7.5
		c-5.6,0.1-11.3,0.1-16.9,0c-6-0.1-9.1-3.1-9.4-9.1c-0.1-1.7-0.2-3.4-0.3-5.1C35.6,70.3,28.5,70.3,20.9,70.3z M466.7,106.6
		c22.6,0,45.1,0,67.8,0c0-7.3,0-14.4,0-22c-1.9,0-3.4,0-5,0c-9.5,0-19,0-28.5,0c-12.1,0-11.9,0-11.9-12c0-3.5,1.3-4.3,4.5-4.2
		c9.9,0.2,19.8,0.1,29.7,0.1c1.6,0,3.1,0,4.7,0c0-7.7,0-14.9,0-22c-20.6,0-40.9,0-61.2,0C466.7,66.6,466.7,86.4,466.7,106.6z
		 M247.3,84.6c-9.4,0-18.4,0-27.4,0c-6,0-6,0-6-5.8c0-9.4,0-18.8,0-28.1c0-1.4-0.2-2.8-0.3-4.3c-7.6,0-14.7,0-21.9,0
		c0,20.3,0,40.3,0,60.2c18.7,0,37.1,0,55.6,0C247.3,99.2,247.3,92.2,247.3,84.6z M101,44.5c0-3.1,0.1-5.8,0-8.5
		C100.1,21.1,88.3,8.9,73.4,8.2c-8.3-0.4-16.6-0.3-24.9,0C34.8,8.8,20.7,22.4,21.3,39.9c6.8,0,13.6,0.1,20.4-0.1
		c0.8,0,1.9-1.6,2.2-2.6c1.5-4.7,3.7-6.7,8.6-6.8c6-0.1,12.1-0.1,18.1,0c4.5,0.1,6.9,2.2,7.7,6.6c0.5,2.3,0.5,4.8,0.7,7.5
		C86.2,44.5,93.4,44.5,101,44.5z M534.8,30.3c0-6.4-0.2-12.2,0.1-18.1c0.1-3.3-0.9-4.4-4.3-4.3C510.4,8,490.1,8,469.9,8
		c-1,0-2,0.2-3,0.2c0,10.7,0,21.1,0,31.4c0.5,0.2,0.7,0.4,1,0.4c4.2,0,8.3,0,12.5,0c8.4,0,8.4,0,8.8-8.1c0-0.4,0.2-0.7,0.5-1.6
		C504.5,30.3,519.4,30.3,534.8,30.3z M191.6,39.9c7,0,13.6,0.1,20.3-0.1c0.7,0,1.9-1.8,2-2.7c0.1-8.8,0.1-17.7,0-26.5
		c0-0.9-1.4-2.5-2.1-2.5C205,7.9,198.4,8,191.6,8C191.6,18.7,191.6,28.9,191.6,39.9z"/>
	<path class="st0" d="M429.3,59.8c-6.1,12-12.3,24-18.7,36.5c-8.8-17.3-17.4-34.1-25.9-50.8c-0.4,0.1-0.7,0.2-1.1,0.4
		c0,20.1,0,40.3,0,60.7c-7.5,0-14.7,0-22.2,0c0-32.8,0-65.7,0-99.1c9.5,0,19-0.1,28.5,0.1c1.1,0,2.5,1.7,3.1,3
		c5.4,10.8,10.6,21.6,15.9,32.4c0.6,1.2,1.2,2.3,2.2,4.1c4.4-8.5,8.5-16.3,12.5-24.1c2.3-4.4,4.4-8.9,6.8-13.2
		c0.6-1.1,2.1-2.2,3.2-2.3c8.7-0.2,17.4-0.1,26.4-0.1c0,33.2,0,66.1,0,99.2c-7.5,0-14.7,0-22.3,0c0-20.4,0-40.8,0-61.3
		c-3,3.5-5.3,7-5.3,11.6c0.1,15.4,0.1,30.8,0,46.2c0,1.2-0.4,2.5-0.6,3.7c-0.5-0.1-0.9-0.1-1.4-0.2c0-15.6,0-31.2,0-46.9
		C430.2,59.9,429.7,59.8,429.3,59.8z"/>
	<path class="st0" d="M353.4,106.7c-7.3,0-14.4,0-22,0c0-20.3,0-40.6,0-60.8c-0.4-0.1-0.8-0.2-1.1-0.3c-2,3.2-4.1,6.3-4.1,10.4
		c0,15.5,0,31.1,0,46.6c0,1.3,0,2.6,0,3.9c-0.4,0.1-0.9,0.3-1.3,0.4c-0.4-1.1-1.1-2.1-1.1-3.2c-0.1-13.4,0-26.8,0-40.2
		c0-1.2,0-2.3-0.9-3.9c-6.2,12-12.3,24-18.8,36.5c-8.8-17.2-17.3-34.1-25.9-50.9c-0.3,0-0.5,0.1-0.8,0.1c0,20.3,0,40.7,0,61.2
		c-7.7,0-14.9,0-22.5,0c0-32.8,0-65.7,0-98.9c9.9,0,19.9,0,30.3,0c6.2,12.6,12.5,25.5,19.3,39.4c2.5-4.8,4.7-9,6.9-13.2
		c4.1-7.9,8.2-15.9,12.4-23.8c0.6-1.1,1.9-2.6,3-2.6c8.8-0.2,17.6-0.1,26.7-0.1C353.4,40.7,353.4,73.5,353.4,106.7z"/>
	<path class="st0" d="M563.8,39.7c-7.8,0-15,0-22.3,0c0-10.7,0-21.1,0-31.5c0.3-0.2,0.5-0.5,0.7-0.5c16.3,0.1,32.7-0.3,49,0.6
		c13,0.7,24.1,11.9,26.1,24.6c2.1,13.2-4.8,26.7-16.6,32.4c-1.1,0.5-2.1,1-3.7,1.8c7.1,13.2,14.1,26.1,21.5,39.7
		c-8.4,0-16.2,0.1-24-0.1c-1.1,0-2.4-1.9-3.1-3.2C585.5,93,579.8,82.4,574,71.9c-1.8-3.2-5.6-4.7-8.7-3.2c-0.9,0.4-1.5,2.4-1.5,3.6
		c-0.1,9.9-0.1,19.8-0.1,29.8c0,1.4,0,2.9,0,4.6c-7.5,0-14.7,0-22.2,0c0-20.1,0-40.1,0-60.5c1.6,0,3,0,4.4,0c13.1,0,26.3,0,39.4,0
		c5.7,0,9.7-3.2,9.8-7.9c0.1-4.6-3.8-8.1-9.5-8.3c-6-0.2-12.1,0.1-18.1-0.1c-3-0.1-4.2,0.9-3.9,3.9C564,35.5,563.8,37.4,563.8,39.7z
		"/>
	<path class="st0" d="M108.2,46.3c7.3,0,14.6,0,22.4,0c0,6.1,0,11.9,0,17.8c0,4.2-0.1,8.3,0.1,12.5c0.2,4.9,3,7.7,7.8,7.9
		c5.2,0.2,10.5,0.2,15.7,0c4.7-0.2,8-3.5,8-8.4c0.2-12.5,0.2-24.9,0-37.4c-0.1-5.3-3.3-8.2-8.7-8.4c-3.7-0.1-7.5-0.1-11.3-0.1
		c-8.3,0-10,1.3-12.1,9.4c-7.2,0-14.5,0-21.8,0c-1.5-13.3,9.1-28.7,23.4-30.8c10.1-1.6,21-1.3,31.1,0.6
		c13.3,2.6,21.7,15.1,21.8,28.7c0,12.7,0.1,25.5,0,38.2c-0.1,17.2-13.5,30.5-30.7,30.5c-6.3,0-12.7,0.5-18.9-0.2
		c-15-1.7-25.6-12.1-26.8-27.3C107.5,68.5,108.2,57.5,108.2,46.3z"/>
	<path class="st0" d="M20.9,70.3c7.6,0,14.6,0,22.1,0c0.1,1.8,0.2,3.5,0.3,5.1c0.3,6,3.4,9.1,9.4,9.1c5.6,0.1,11.3,0.1,16.9,0
		c5-0.1,8.5-3.2,8.9-7.5c0.3-4.1-2.7-7.7-7.6-8.2c-6.3-0.5-12.6-0.6-18.9-0.3c-14.6,0.6-25.3-10.9-29.2-20.2
		c-0.2-0.6-0.3-1.2-0.4-1.6c17.5,0,34.9-0.7,52.3,0.2c14,0.7,24.5,12.1,26.2,26.2c1.7,13.4-5.9,26.5-18.6,31.5
		c-3.5,1.4-7.5,2.1-11.3,2.2c-8,0.2-16.2,0.6-24.1-0.5c-15.7-2.2-25.7-14.5-26-30.3C20.9,74.2,20.9,72.5,20.9,70.3z"/>
	<path class="st0" d="M466.7,106.6c0-20.2,0-40,0-60.1c20.4,0,40.7,0,61.2,0c0,7.1,0,14.3,0,22c-1.6,0-3.2,0-4.7,0
		c-9.9,0-19.8,0.1-29.7-0.1c-3.2-0.1-4.5,0.7-4.5,4.2c0,12-0.1,12,11.9,12c9.5,0,19,0,28.5,0c1.6,0,3.2,0,5,0c0,7.6,0,14.7,0,22
		C511.8,106.6,489.3,106.6,466.7,106.6z"/>
	<path class="st0" d="M247.3,84.6c0,7.6,0,14.7,0,22c-18.5,0-36.9,0-55.6,0c0-20,0-40,0-60.2c7.2,0,14.3,0,21.9,0
		c0.1,1.5,0.3,2.9,0.3,4.3c0,9.4,0,18.8,0,28.1c0,5.8,0,5.8,6,5.8C228.9,84.6,237.9,84.6,247.3,84.6z"/>
	<path class="st0" d="M101,44.5c-7.6,0-14.8,0-22,0c-0.2-2.7-0.3-5.1-0.7-7.5c-0.8-4.4-3.3-6.5-7.7-6.6c-6-0.1-12.1-0.1-18.1,0
		c-4.9,0.1-7.1,2.1-8.6,6.8c-0.3,1-1.4,2.6-2.2,2.6c-6.8,0.2-13.6,0.1-20.4,0.1C20.7,22.4,34.8,8.8,48.5,8.2
		c8.3-0.4,16.6-0.5,24.9,0C88.3,8.9,100.1,21.1,101,36C101.1,38.7,101,41.3,101,44.5z"/>
	<path class="st0" d="M534.8,30.3c-15.4,0-30.3,0-45.2,0c-0.3,0.8-0.5,1.2-0.5,1.6c-0.4,8.2-0.4,8.2-8.8,8.1c-4.2,0-8.3,0-12.5,0
		c-0.2,0-0.5-0.2-1-0.4c0-10.3,0-20.7,0-31.4c1-0.1,2-0.2,3-0.2c20.2,0,40.5,0.1,60.7-0.1c3.4,0,4.4,1,4.3,4.3
		C534.6,18,534.8,23.9,534.8,30.3z"/>
	<path class="st0" d="M191.6,39.9c0-11,0-21.3,0-32c6.8,0,13.4-0.1,20.1,0.1c0.8,0,2.1,1.6,2.1,2.5c0.2,8.8,0.2,17.7,0,26.5
		c0,1-1.2,2.7-2,2.7C205.3,40,198.6,39.9,191.6,39.9z"/>
</g>
</svg>
